# xmcd
#
# Track frame offsets:
#	168
#	18178
#	36528
#	61273
#	87448
#	100790
#	115900
#	137913
#	152260
#	164670
#	185443
#	200693
#	217323
#	231843
#	267825
#	281275
#	302878
#
# Disc length: 4353 seconds
#
# Revision: 0
# Processed by: cddbd v1.4b42PL1 Copyright (c) Steve Scherf et al.
# Submitted via: audiograbber 1.80.04
#
DISCID=f510ff11
DTITLE=Various Artist - Blues In Russia
DYEAR=1900
DGENRE=
TTITLE0=Crossroads - Blues Lives In Russia
TTITLE1=Crossroads - Born To Live The Blues
TTITLE2=Crossroads - Leave My Girl Alone
TTITLE3=Ultima Thule - Change In The Weather
TTITLE4=Ko Ride Me High
TTITLE5=Blues Street Friends - Blues For Alcoholics
TTITLE6=Sats Blues Band - I'm On My Way
TTITLE7=Silver Rouble - Walking The Dog
TTITLE8=Silver Rouble - All Over Now
TTITLE9=Veto Bank - Blues For You
TTITLE10=Compromise Blue - Mary Had A Little Lamb
TTITLE11=Compromise Blue - Sunday Papers On A Saturday Night
TTITLE12=Mess Around
TTITLE13=Last Night
TTITLE14=Little Wing
TTITLE15=Red House
TTITLE16=Angel
EXTD=
EXTT0=
EXTT1=
EXTT2=
EXTT3=
EXTT4=
EXTT5=
EXTT6=
EXTT7=
EXTT8=
EXTT9=
EXTT10=
EXTT11=
EXTT12=
EXTT13=
EXTT14=
EXTT15=
EXTT16=
PLAYORDER=
